<svg version="1.1" width="0.88em" height="1em" viewBox="0 0 448 512" xmlns="http://www.w3.org/2000/svg" xmlns:xlink="http://www.w3.org/1999/xlink" overflow="hidden"><path d=" M 400 32 L 48 32 C 21.5 32 0 53.5 0 80 L 0 432 C 0 458.5 21.5 480 48 480 L 400 480 C 426.5 480 448 458.5 448 432 L 448 80 C 448 53.5 426.5 32 400 32 Z M 277.3 415.7 C 268.9 417.2 265.8 412 265.8 407.7 C 265.8 402.3 266 374.7 266 352.4 C 266 336.8 260.8 326.9 254.7 321.7 C 291.7 317.6 330.7 312.5 330.7 248.6 C 330.7 230.4 324.2 221.3 313.6 209.6 C 315.3 205.3 321 187.6 311.9 164.6 C 298 160.3 266.2 182.5 266.2 182.5 C 253 178.8 238.7 176.9 224.6 176.9 C 210.5 176.9 196.2 178.8 183 182.5 C 183 182.5 151.2 160.3 137.3 164.6 C 128.2 187.5 133.8 205.2 135.6 209.6 C 125 221.3 120 230.4 120 248.6 C 120 312.2 157.3 317.6 194.3 321.7 C 189.5 326 185.2 333.4 183.7 344 C 174.2 348.3 149.9 355.7 135.4 330.1 C 126.3 314.3 109.9 313 109.9 313 C 93.7 312.8 108.8 323.2 108.8 323.2 C 119.6 328.2 127.2 347.4 127.2 347.4 C 136.9 377.1 183.3 367.1 183.3 367.1 C 183.3 381 183.5 403.6 183.5 407.7 C 183.5 412 180.5 417.2 172 415.7 C 106 393.6 59.8 330.8 59.8 257.4 C 59.8 165.6 130 95.9 221.8 95.9 C 313.6 95.9 388 165.6 388 257.4 C 388.1 330.8 343.3 393.7 277.3 415.7 Z M 179.2 354.6 C 177.3 355 175.5 354.2 175.3 352.9 C 175.1 351.4 176.4 350.1 178.3 349.7 C 180.2 349.5 182 350.3 182.2 351.6 C 182.5 352.9 181.2 354.2 179.2 354.6 Z M 169.7 353.7 C 169.7 355 168.2 356.1 166.2 356.1 C 164 356.3 162.5 355.2 162.5 353.7 C 162.5 352.4 164 351.3 166 351.3 C 167.9 351.1 169.7 352.2 169.7 353.7 Z M 156 352.6 C 155.6 353.9 153.6 354.5 151.9 353.9 C 150 353.5 148.7 352 149.1 350.7 C 149.5 349.4 151.5 348.8 153.2 349.2 C 155.2 349.8 156.5 351.3 156 352.6 Z M 143.7 347.2 C 142.8 348.3 140.9 348.1 139.4 346.6 C 137.9 345.3 137.5 343.4 138.5 342.5 C 139.4 341.4 141.3 341.6 142.8 343.1 C 144.1 344.4 144.6 346.4 143.7 347.2 Z M 134.6 338.1 C 133.7 338.7 132 338.1 130.9 336.6 C 129.8 335.1 129.8 333.4 130.9 332.7 C 132 331.8 133.7 332.5 134.6 334 C 135.7 335.5 135.7 337.3 134.6 338.1 Z M 128.1 328.4 C 127.2 329.3 125.7 328.8 124.6 327.8 C 123.5 326.5 123.3 325 124.2 324.3 C 125.1 323.4 126.6 323.9 127.7 324.9 C 128.8 326.2 129 327.7 128.1 328.4 Z M 121.4 321 C 121 321.9 119.7 322.1 118.6 321.4 C 117.3 320.8 116.7 319.7 117.1 318.8 C 117.5 318.2 118.6 317.9 119.9 318.4 C 121.2 319.1 121.8 320.2 121.4 321 Z" stroke="none" stroke-width="1" stroke-dasharray="" stroke-dashoffset="1" fill="#A6A6A6" fill-opacity="1"/></svg>