<svg version="1.1" width="0.88em" height="1em" viewBox="0 0 448 512" xmlns="http://www.w3.org/2000/svg" xmlns:xlink="http://www.w3.org/1999/xlink" overflow="hidden"><path d=" M 48 32 C 21.5 32 0 53.5 0 80 L 0 432 C 0 458.5 21.5 480 48 480 L 400 480 C 426.5 480 448 458.5 448 432 L 448 80 C 448 53.5 426.5 32 400 32 L 48 32 Z M 188.695 96 L 366.935 96 L 350.465 108.86 L 350.465 131.553 C 356.581 132.338 355.934 136.013 355.934 140.41 L 355.934 247.633 C 355.934 252.598 351.872 256.663 346.906 256.663 L 343.582 256.663 C 338.616 256.663 334.552 252.598 334.552 247.633 L 334.552 140.41 C 334.552 136.002 333.912 132.324 340.074 131.549 L 340.074 117.283 L 292.65 156.176 C 293.198 157.192 293.718 157.843 294.213 158.696 C 298.38 166.073 300.502 175.244 300.502 186.456 C 300.502 195.048 299.07 202.77 296.166 209.586 C 293.276 216.403 289.759 221.97 285.658 226.26 C 281.557 230.564 277.443 234.496 273.328 238.037 C 269.215 241.585 265.699 245.284 262.82 249.125 C 259.919 252.953 258.473 256.912 258.473 261.014 C 258.473 265.122 260.349 269.294 264.086 273.5 C 267.81 277.719 272.391 281.806 277.809 285.844 C 283.238 289.854 288.655 294.307 294.072 299.15 C 299.502 303.986 304.059 310.211 307.783 317.771 C 311.533 325.357 313.408 333.709 313.408 342.889 C 313.408 354.998 310.321 365.935 304.162 375.668 C 297.99 385.361 289.943 393.097 280.061 398.768 C 270.151 404.477 259.553 408.774 248.252 411.678 C 236.924 414.555 225.687 416 214.462 416 C 207.289 415.997 200.128 415.44 193.041 414.334 C 185.829 413.214 178.603 411.236 171.324 408.449 C 164.033 405.643 157.574 402.199 151.974 398.059 C 146.363 393.964 141.844 388.677 138.381 382.239 C 134.917 375.799 133.197 368.559 133.197 360.519 C 133.197 350.981 135.854 342.134 141.18 333.885 C 146.505 325.695 153.562 318.859 162.338 313.443 C 177.651 303.918 201.674 298.033 234.369 295.807 C 226.896 286.464 223.146 277.667 223.146 269.437 C 223.146 264.755 224.368 259.737 226.791 254.32 C 222.805 254.883 218.785 255.169 214.76 255.174 C 197.197 255.174 182.364 249.464 170.32 237.967 C 158.276 226.488 152.262 212.121 152.262 194.75 C 152.262 192.934 152.314 191.331 152.443 189.56 L 81.064 189.56 L 188.695 96 Z M 220.075 134.334 C 208.875 134.334 200.282 138.363 194.293 146.404 C 188.305 154.424 185.309 164.139 185.309 175.551 C 185.309 185.271 186.949 195.167 190.23 205.258 C 193.499 215.343 198.852 224.348 206.352 232.283 C 213.825 240.239 222.523 244.209 232.406 244.209 C 243.422 244.209 252.029 240.519 258.201 233.137 C 264.346 225.767 267.431 216.463 267.431 205.257 C 267.431 195.713 265.805 185.721 262.537 175.271 C 259.281 164.809 253.852 155.369 246.273 146.965 C 238.721 138.533 229.97 134.334 220.074 134.334 Z M 238.592 306.414 C 230.557 306.414 222.652 307.126 214.892 308.544 C 207.132 309.924 199.476 312.254 191.924 315.543 C 184.345 318.813 178.226 323.618 173.564 329.973 C 168.877 336.319 166.544 343.794 166.544 352.395 C 166.544 360.59 168.604 367.901 172.719 374.268 C 176.821 380.595 182.237 385.552 188.969 389.1 C 195.701 392.654 202.758 395.336 210.127 397.1 C 217.51 398.851 225.024 399.764 232.68 399.764 C 247.822 399.764 260.855 396.353 271.793 389.535 C 282.703 382.719 288.173 372.193 288.173 357.986 C 288.173 354.998 287.757 352.054 286.936 349.184 C 286.076 346.28 285.232 343.794 284.398 341.73 C 283.565 339.705 281.977 337.263 279.633 334.451 C 277.885 332.335 276.113 330.238 274.318 328.162 C 273.094 326.73 270.806 324.685 267.432 321.982 C 264.087 319.269 261.952 317.577 261 316.952 L 260.998 316.952 C 260.06 316.294 257.626 314.516 253.707 311.631 C 249.788 308.72 247.641 307.177 247.262 306.994 C 245.204 306.624 242.316 306.414 238.592 306.414 Z" stroke="none" stroke-width="1" stroke-dasharray="" stroke-dashoffset="1" fill="#A6A6A6" fill-opacity="1"/></svg>