<svg version="1.1" viewBox="0 0 96 96" xmlns="http://www.w3.org/2000/svg" xmlns:xlink="http://www.w3.org/1999/xlink" id="Icons_Splash" overflow="hidden"><path d=" M 82.65 62.63 C 80.17 61.33 70.46 58.06 62.3 54.89 C 60.3 54.1 58.51 52.64 58.16 50.5 C 57.75 48.02 59.47 46.27 61.3 44.67 C 66.3 40.25 71.24 39.07 73.24 37.07 C 77.2125 33.2332 77.3225 26.9025 73.4858 22.93 C 69.649 18.9575 63.3183 18.8474 59.3458 22.6842 C 59.2624 22.7647 59.1805 22.8467 59.1 22.93 C 58.1 23.93 56.9 25.93 55.26 28.02 C 49.59 35.13 48.17 35.89 44.15 35.89 L 44.15 35.89 C 41.7964 35.83 39.7347 34.2968 39 32.06 C 36.71 25.64 34 17.76 32.88 15.67 C 30.6874 11.7322 25.7178 10.3174 21.78 12.51 C 17.8422 14.7026 16.4274 19.6722 18.62 23.61 C 20.776 26.7864 23.2341 29.7469 25.96 32.45 C 28.0047 34.5079 28.9123 37.4364 28.39 40.29 C 27.5252 44.5751 23.5738 47.5224 19.22 47.13 C 18.22 47.05 17.46 47 17.02 47 C 13.6179 47 10.86 49.7579 10.86 53.16 C 10.86 56.5621 13.6179 59.32 17.02 59.32 C 17.96 59.32 20.4 59.11 23.44 58.73 C 25.9367 58.3929 28.3642 59.7118 29.44 61.99 L 29.44 61.99 C 30.44 64.12 29.44 66.22 28.44 68.36 C 27.7815 69.7507 27.0159 71.088 26.15 72.36 C 24.951 74.6747 25.8555 77.5231 28.1702 78.722 C 30.3388 79.8453 33.0062 79.1288 34.32 77.07 C 35.08 75.75 35.79 71.68 38.59 66.07 C 38.9423 65.2001 39.6002 64.4889 40.44 64.07 C 42.154 63.3446 44.1316 64.1461 44.8569 65.8602 C 44.9134 65.9936 44.9612 66.1305 45 66.27 C 45.32 67.35 45.62 68.27 45.82 68.74 C 46.8906 70.866 49.482 71.7216 51.608 70.6509 C 53.4484 69.7242 54.3753 67.6243 53.82 65.64 C 53.621 65.1922 53.3869 64.7609 53.12 64.35 C 52.4471 63.3355 52.6645 61.9744 53.62 61.22 C 54.5652 60.5916 55.8232 60.7216 56.62 61.53 C 63.78 67.69 72.35 75.65 75 77.06 C 78.9264 79.2721 83.9026 77.8825 86.1147 73.9561 C 88.3269 70.0298 86.9372 65.0536 83.0109 62.8414 C 82.8792 62.7672 82.7456 62.6967 82.61 62.63 Z" stroke="none" stroke-width="1" stroke-dasharray="" stroke-dashoffset="1" fill="#F4D26D" fill-opacity="1"/><circle cx="47.84" cy="20" r="4" stroke="none" stroke-width="1" stroke-dasharray="" stroke-dashoffset="1" fill="#F4D26D" fill-opacity="1"/><circle cx="14.63" cy="35.21" r="5.21" stroke="none" stroke-width="1" stroke-dasharray="" stroke-dashoffset="1" fill="#F4D26D" fill-opacity="1"/><circle cx="16.84" cy="68" r="2" stroke="none" stroke-width="1" stroke-dasharray="" stroke-dashoffset="1" fill="#F4D26D" fill-opacity="1"/><circle cx="43.34" cy="80.5" r="1.5" stroke="none" stroke-width="1" stroke-dasharray="" stroke-dashoffset="1" fill="#F4D26D" fill-opacity="1"/><circle cx="60.34" cy="82.5" r="3.5" stroke="none" stroke-width="1" stroke-dasharray="" stroke-dashoffset="1" fill="#F4D26D" fill-opacity="1"/><circle cx="75.84" cy="51" r="2" stroke="none" stroke-width="1" stroke-dasharray="" stroke-dashoffset="1" fill="#F4D26D" fill-opacity="1"/></svg>