<svg version="1.1" viewBox="0 0 96 96" xmlns="http://www.w3.org/2000/svg" xmlns:xlink="http://www.w3.org/1999/xlink" id="Icons_PartialSun" overflow="hidden"><g><rect x="56.8" y="10.5" width="4" height="12" stroke="none" stroke-width="1" stroke-dasharray="" stroke-dashoffset="1" fill="#F4D26D" fill-opacity="1"/><rect x="70.5" y="21.8" width="12" height="4" stroke="none" stroke-width="1" stroke-dasharray="" stroke-dashoffset="1" fill="#F4D26D" fill-opacity="1" transform="matrix(-0.7071,0.7071,-0.7071,-0.7071,147.466,-13.444)"/><rect x="77.8" y="39.5" width="12" height="4" stroke="none" stroke-width="1" stroke-dasharray="" stroke-dashoffset="1" fill="#F4D26D" fill-opacity="1"/><rect x="74.5" y="53.2" width="4" height="12" stroke="none" stroke-width="1" stroke-dasharray="" stroke-dashoffset="1" fill="#F4D26D" fill-opacity="1" transform="matrix(-0.7071,0.7071,-0.7071,-0.7071,172.477,46.9223)"/><rect x="27.8" y="39.5" width="12" height="4" stroke="none" stroke-width="1" stroke-dasharray="" stroke-dashoffset="1" fill="#F4D26D" fill-opacity="1"/><rect x="39.2" y="17.8" width="4" height="12" stroke="none" stroke-width="1" stroke-dasharray="" stroke-dashoffset="1" fill="#F4D26D" fill-opacity="1" transform="matrix(-0.7071,0.7071,-0.7071,-0.7071,87.099,11.5672)"/><path d=" M 64.8 66.5 C 64.3 66.5 63.8 66.5 63.3 66.6 C 63.3 66.6 63.3 66.5 63.3 66.5 C 63.3 62.7 61.5 59 58.3 56.8 C 55.2 54.5 51.2 53.9 47.5 55.1 C 44.4 49.3 37.7 46.3 31.3 47.9 C 24.9 49.4 20.4 55.1 20.2 61.7 C 16 60.9 11.5 62.5 8.7 66 C 6 69.5 5.4 74.3 7.2 78.3 C 9 82.4 12.9 85.1 17.4 85.4 L 65.4 85.5 C 70.6 85.4 74.8 81 74.6 75.7 C 74.5 70.5 70.1 66.4 64.8 66.5 Z" stroke="none" stroke-width="1" stroke-dasharray="" stroke-dashoffset="1" fill="#F4D26D" fill-opacity="1"/><path d=" M 44.6 46.3 C 46.4 47.4 48.1 48.9 49.4 50.6 C 54.6 50 59.7 51.9 63.2 55.8 C 69 54 73.2 48.9 73.7 42.8 C 74.2 36.7 71 30.9 65.6 28.1 C 60.2 25.3 53.6 26.1 49 30.1 C 44.4 34.1 42.7 40.5 44.6 46.3 L 44.6 46.3 Z" stroke="none" stroke-width="1" stroke-dasharray="" stroke-dashoffset="1" fill="#F4D26D" fill-opacity="1"/></g></svg>