<svg version="1.1" viewBox="0 0 96 96" xmlns="http://www.w3.org/2000/svg" xmlns:xlink="http://www.w3.org/1999/xlink" id="Icons_Rain" overflow="hidden"><g><path d=" M 55.1 72.5 C 55.1 76.4 52 79.5 48.1 79.5 C 44.2 79.5 41.1 76.4 41.1 72.5 C 41.1 68.6 48.1 58.5 48.1 58.5 C 48.1 58.5 55.1 68.7 55.1 72.5 Z" stroke="none" stroke-width="1" stroke-dasharray="" stroke-dashoffset="1" fill="#F4D26D" fill-opacity="1"/><path d=" M 70.1 68.5 C 70.1 71.3 67.9 73.5 65.1 73.5 C 62.3 73.5 60.1 71.3 60.1 68.5 C 60.1 65.7 65.1 58.5 65.1 58.5 C 65.1 58.5 70.1 65.8 70.1 68.5 Z" stroke="none" stroke-width="1" stroke-dasharray="" stroke-dashoffset="1" fill="#F4D26D" fill-opacity="1"/><path d=" M 36.1 68.5 C 36.1 71.3 33.9 73.5 31.1 73.5 C 28.3 73.5 26.1 71.3 26.1 68.5 C 26.1 65.7 31.1 58.5 31.1 58.5 C 31.1 58.5 36.1 65.8 36.1 68.5 Z" stroke="none" stroke-width="1" stroke-dasharray="" stroke-dashoffset="1" fill="#F4D26D" fill-opacity="1"/><path d=" M 82.1 45 C 82.1 42.2 80.9 39.6 78.8 37.8 C 76.7 36 73.9 35.2 71.1 35.7 L 71.1 35.6 C 71.1 31.8 69.3 28.1 66.1 25.9 C 63 23.6 59 23 55.3 24.2 C 52.2 18.4 45.5 15.4 39.1 17 C 32.7 18.5 28.1 24.2 28 30.8 C 23.6 30 19.1 31.7 16.4 35.2 C 13.6 38.7 13 43.4 14.8 47.5 C 16.6 51.6 20.5 54.3 25 54.6 L 73 54.6 C 78.2 54.3 82.1 50.1 82.1 45 Z" stroke="none" stroke-width="1" stroke-dasharray="" stroke-dashoffset="1" fill="#F4D26D" fill-opacity="1"/></g></svg>