<svg version="1.1" viewBox="0 0 96 96" xmlns="http://www.w3.org/2000/svg" xmlns:xlink="http://www.w3.org/1999/xlink" id="Icons_PuzzlePieces" overflow="hidden"><path d=" M 49.15 37.13 L 49.15 37.13 L 54.78 39.46 C 54.9811 35.7652 58.1394 32.933 61.8343 33.1341 C 64.4082 33.2742 66.6735 34.8785 67.66 37.26 C 68.6145 39.6444 68.1635 42.3617 66.49 44.31 L 73.27 47.12 L 73.39 47.17 L 83.38 23 L 59.14 13 L 55.37 22.27 L 55.37 22.27 L 55.08 22.96 L 55 22.64 C 53.8993 19.9962 50.8682 18.7399 48.22 19.83 C 47.059 20.3313 46.113 21.2276 45.55 22.36 C 44.6136 25.0632 46.0458 28.0138 48.7491 28.9502 C 49.9481 29.3656 51.2579 29.3264 52.43 28.84 L 52.75 28.71 L 52.56 29.17 L 52.56 29.17 Z" stroke="none" stroke-width="1.54217" stroke-dasharray="" stroke-dashoffset="1" stroke-opacity="1" fill="#FFC000" fill-opacity="1"/><path d=" M 46.62 72.6 C 49.2416 71.7325 50.6637 68.904 49.7962 66.2824 C 48.9287 63.6608 46.1002 62.2388 43.4786 63.1062 C 42.4826 63.4358 41.6154 64.0703 41 64.92 L 41 55.92 L 34.93 55.92 C 34.9739 56.2516 34.9973 56.5855 35 56.92 C 35 61.3383 31.4183 64.92 27 64.92 C 22.5817 64.92 19 61.3383 19 56.92 C 19.0027 56.5855 19.0261 56.2516 19.07 55.92 L 13 55.92 L 13 81.92 L 41 81.92 L 41 70.92 C 41.1115 71.0735 41.2317 71.2204 41.36 71.36 C 41.4139 71.4625 41.4775 71.5596 41.55 71.65 C 42.732 72.7819 44.4176 73.2176 46 72.8 C 46.17 72.8 46.33 72.7 46.49 72.65 Z" stroke="none" stroke-width="1.54217" stroke-dasharray="" stroke-dashoffset="1" stroke-opacity="1" fill="#FFC000" fill-opacity="1"/><path d=" M 59 55.9 C 59.1552 55.7871 59.3022 55.6635 59.44 55.53 C 59.5492 55.4883 59.6482 55.4235 59.73 55.34 C 60.9592 54.0227 61.3662 52.1371 60.79 50.43 L 60.79 50.28 C 59.8608 47.6796 56.9995 46.3249 54.3991 47.2541 C 51.7987 48.1833 50.444 51.0446 51.3732 53.645 C 51.6913 54.5354 52.2554 55.3173 53 55.9 L 44 55.9 L 44 60 C 44.3318 59.9598 44.6658 59.9398 45 59.94 C 49.4183 59.94 53 63.5217 53 67.94 C 53 72.3583 49.4183 75.94 45 75.94 C 44.6656 75.9369 44.3316 75.9136 44 75.87 L 44 81.9 L 70 81.9 L 70 55.9 Z" stroke="none" stroke-width="1.54217" stroke-dasharray="" stroke-dashoffset="1" stroke-opacity="1" fill="#FFC000" fill-opacity="1"/><path d=" M 41 35.28 L 41 24.9 L 13 24.9 L 13 52.9 L 24 52.9 C 22.741 53.8443 22 55.3262 22 56.9 C 22 59.6614 24.2386 61.9 27 61.9 C 29.7614 61.9 32 59.6614 32 56.9 C 32 55.3262 31.259 53.8443 30 52.9 L 41 52.9 L 41 42.62 C 38.8493 44.6381 35.5007 44.6381 33.35 42.62 C 31.3231 40.6404 31.2848 37.3925 33.2644 35.3656 C 33.2926 35.3367 33.3211 35.3082 33.35 35.28 C 35.5007 33.2619 38.8493 33.2619 41 35.28 Z" stroke="none" stroke-width="1.54217" stroke-dasharray="" stroke-dashoffset="1" stroke-opacity="1" fill="#FFC000" fill-opacity="1"/></svg>