<svg version="1.1" width="0.88em" height="1em" viewBox="0 0 448 512" xmlns="http://www.w3.org/2000/svg" xmlns:xlink="http://www.w3.org/1999/xlink" overflow="hidden"><path d=" M 48 32 C 21.5 32 0 53.5 0 80 L 0 432 C 0 458.5 21.5 480 48 480 L 400 480 C 426.5 480 448 458.5 448 432 L 448 80 C 448 53.5 426.5 32 400 32 L 48 32 Z M 224 96 C 312.373 96 384 167.64 384 256 C 384 344.36 312.373 416 224 416 C 135.627 416 64 344.36 64 256 C 64 167.64 135.627 96 224 96 Z M 161.387 154.254 C 154.187 154.254 148.347 160.106 148.347 167.279 C 148.347 174.506 154.2 180.32 161.387 180.32 C 168.583 180.332 174.427 174.508 174.439 167.312 C 174.439 167.301 174.439 167.291 174.439 167.28 C 174.439 160.093 168.6 154.254 161.387 154.254 Z M 151.92 194.16 L 151.92 326.654 L 170.879 326.654 L 170.879 194.16 L 151.919 194.16 Z M 200.453 194.16 L 200.453 326.453 L 242.361 326.453 C 254.134 326.453 262.095 326.133 266.281 325.48 C 270.455 324.8 275.027 323.48 280.027 321.533 C 288.574 318.306 296.067 313.56 302.507 307.213 C 308.841 301.079 313.706 293.961 317.119 285.867 L 317.121 285.867 C 320.521 277.787 322.254 269.306 322.241 260.426 C 322.241 248.053 319.134 236.601 312.934 226.107 C 306.734 215.627 298.4 207.654 287.906 202.254 C 277.399 196.841 263.161 194.16 245.121 194.16 L 200.453 194.16 Z M 219.453 211.04 L 243.133 211.04 C 252.253 211.04 258.841 211.374 262.947 212.08 C 267.067 212.76 271.414 214.201 276.014 216.348 L 276.014 216.346 C 280.574 218.506 284.653 221.266 288.199 224.6 C 297.813 233.587 302.613 245.199 302.613 259.426 C 302.613 273.906 297.933 285.88 288.586 295.373 C 285.721 298.248 282.478 300.72 278.947 302.721 C 275.441 304.721 271.066 306.347 265.812 307.641 C 260.559 308.934 253.202 309.586 243.734 309.586 L 219.454 309.586 L 219.454 211.039 Z" stroke="none" stroke-width="1" stroke-dasharray="" stroke-dashoffset="1" fill="#A6A6A6" fill-opacity="1"/></svg>