<svg version="1.1" width="0.88em" height="1em" viewBox="0 0 448 512" xmlns="http://www.w3.org/2000/svg" xmlns:xlink="http://www.w3.org/1999/xlink" overflow="hidden"><style>
.MsftOfcThm_Background1_lumMod_65_Fill {
 fill:#A6A6A6; 
}
</style>
<path d=" M 48 32 C 21.5 32 0 53.5 0 80 L 0 432 C 0 458.5 21.5 480 48 480 L 400 480 C 426.5 480 448 458.5 448 432 L 448 80 C 448 53.5 426.5 32 400 32 L 48 32 Z M 325.201 96 C 330.828 96 335.932 96.651 340.459 97.98 C 344.935 99.298 348.949 101.115 352.49 103.441 C 355.981 105.743 359.001 108.454 361.494 111.523 C 364 114.531 366.094 117.86 367.721 121.422 C 368.347 122.547 368.17 123.442 367.171 124.068 L 353.271 129.783 C 352.094 130.411 351.265 130.091 350.611 128.85 C 347.492 123.07 344.831 119.273 340.459 116.512 C 336.034 113.762 331.941 112.457 325.201 112.457 C 317.874 112.457 314.6 113.914 310.01 117.201 C 305.457 120.424 302.12 124.477 300.15 130.652 C 299.755 131.766 299.396 133.148 298.975 134.772 C 298.629 136.422 298.348 138.442 298.17 140.807 C 297.99 143.173 297.823 146.102 297.67 149.555 C 297.568 153.008 297.518 157.201 297.518 162.061 C 297.518 166.945 297.568 171.139 297.67 174.591 C 297.823 178.031 297.99 180.961 298.17 183.326 C 298.348 185.717 298.63 187.726 298.975 189.389 C 299.396 190.987 299.755 192.366 300.15 193.492 C 302.12 199.642 304.933 203.006 309.076 205.705 C 313.168 208.442 317.874 210.412 325.201 210.412 C 331.711 210.412 337.67 208.557 341.557 205.73 C 345.407 202.905 348.603 199.171 350.035 194.068 C 350.662 191.92 351.468 189.246 352.018 185.973 C 352.516 182.699 352.518 179.235 352.518 174.453 C 352.518 173.698 352.094 173.313 351.391 173.313 L 329.127 173.313 C 327.874 173.313 327.26 172.7 327.26 171.447 L 327.26 158.686 C 327.26 157.419 327.874 156.805 329.127 156.805 L 369.984 156.805 C 371.264 156.805 371.865 157.419 371.865 158.685 L 371.865 169.592 C 371.865 175.372 371.865 180.732 371.264 185.693 C 370.688 190.655 369.909 194.95 368.924 198.082 C 365.804 207.892 360.854 214.875 353.271 220.078 C 345.662 225.321 335.854 228.146 325.201 228.146 C 314.255 228.146 305.036 225.63 297.518 220.629 C 289.986 215.565 284.6 208.133 281.314 198.197 C 280.683 196.291 280.188 194.343 279.832 192.367 C 279.448 190.36 279.102 188.019 278.795 185.32 C 278.475 182.597 278.271 179.401 278.145 175.629 C 278.016 171.883 277.965 167.304 277.965 162.061 C 277.965 156.791 278.017 152.279 278.145 148.52 C 278.272 144.747 278.475 141.51 278.795 138.812 C 279.101 136.127 279.448 133.775 279.832 131.768 C 280.202 129.748 280.689 127.828 281.316 125.949 C 284.602 116.013 289.986 108.545 297.518 103.531 C 305.036 98.518 314.255 96 325.2 96 Z M 173.527 173.813 C 217.096 173.813 250.33 193.671 250.33 236.459 C 250.33 265.487 227.414 294.542 196.469 301.779 C 215.202 335.028 237.721 364.441 254.549 382.752 C 264.447 393.455 278.195 403.02 291.941 403.02 L 291.941 412.932 C 287.749 414.862 280.881 416 274.396 416 C 252.236 416 234.678 407.227 223.196 393.455 C 210.611 378.953 188.45 347.61 165.15 305.986 C 152.9 305.986 144.882 305.986 135.713 305.219 L 135.713 369.004 C 135.713 392.7 141.085 397.675 151.391 399.172 L 171.264 401.881 L 171.264 412.931 C 161.711 412.561 139.55 411.805 122.364 411.805 C 104.396 411.805 86.441 412.561 76.134 412.932 L 76.134 401.88 L 90.637 399.17 C 100.611 397.279 106.289 392.7 106.289 369.003 L 106.289 218.506 C 106.289 194.798 100.611 190.245 90.637 188.326 L 76.135 185.666 L 76.135 174.58 C 85.661 174.95 100.956 174.95 116.264 174.95 C 133.04 174.95 151.008 173.813 173.527 173.813 Z M 166.66 190.998 C 156.34 190.998 144.524 190.998 135.713 191.766 L 135.713 287.611 C 144.524 288.441 150.228 288.787 163.221 288.787 C 197.236 288.787 217.85 268.544 217.85 238.365 C 217.85 207.829 198.77 190.998 166.66 190.998 Z" stroke="none" stroke-width="1" stroke-dasharray="" stroke-dashoffset="1" fill="#A6A6A6" fill-opacity="1"/></svg>